<?xml version="1.0" encoding="UTF-8"?>
<!DOCTYPE svg PUBLIC "-//W3C//DTD SVG 1.1//EN" "http://www.w3.org/Graphics/SVG/1.1/DTD/svg11.dtd">
<svg xmlns="http://www.w3.org/2000/svg" version="1.1" width="600px" height="601px" style="shape-rendering:geometricPrecision; text-rendering:geometricPrecision; image-rendering:optimizeQuality; fill-rule:evenodd; clip-rule:evenodd" xmlns:xlink="http://www.w3.org/1999/xlink">
<g><path style="opacity:0.984" fill="#4d4e4e" d="M 133.5,270.5 C 126.167,270.5 118.833,270.5 111.5,270.5C 110.32,267.46 108.653,264.794 106.5,262.5C 102.649,261.191 98.6493,261.191 94.5,262.5C 93.0748,265.688 91.4081,268.688 89.5,271.5C 85.8333,271.5 82.1667,271.5 78.5,271.5C 77.6916,268.55 76.3582,265.883 74.5,263.5C 74.3893,262.883 74.056,262.383 73.5,262C 69.4589,261.173 65.4589,261.34 61.5,262.5C 60.0748,265.688 58.4081,268.688 56.5,271.5C 55.5,271.5 54.5,271.5 53.5,271.5C 47.1667,271.5 40.8333,271.5 34.5,271.5C 39.4292,261.812 44.7625,252.312 50.5,243C 73.174,242.167 95.8407,242.334 118.5,243.5C 123.957,252.279 128.957,261.279 133.5,270.5 Z"/></g>
<g><path style="opacity:1" fill="#088baa" d="M 74.5,263.5 C 73.5041,263.414 72.6708,263.748 72,264.5C 64.9686,275.898 58.4686,287.565 52.5,299.5C 51.8333,299.5 51.5,299.833 51.5,300.5C 49.5,303.167 47.5,305.833 45.5,308.5C 43.2231,306.126 41.5565,303.293 40.5,300C 45.7116,290.408 51.045,280.908 56.5,271.5C 58.4081,268.688 60.0748,265.688 61.5,262.5C 65.4589,261.34 69.4589,261.173 73.5,262C 74.056,262.383 74.3893,262.883 74.5,263.5 Z"/></g>
<g><path style="opacity:1" fill="#35c5e8" d="M 106.5,262.5 C 108.653,264.794 110.32,267.46 111.5,270.5C 115.765,277.365 119.765,284.365 123.5,291.5C 121.521,294.099 119.521,296.765 117.5,299.5C 109.997,287.831 102.997,275.831 96.5,263.5C 99.7683,262.513 103.102,262.18 106.5,262.5 Z"/></g>
<g><path style="opacity:1" fill="#0db7e1" d="M 74.5,263.5 C 76.3582,265.883 77.6916,268.55 78.5,271.5C 73.8458,280.14 69.1792,288.806 64.5,297.5C 63.8333,298.167 63.1667,298.833 62.5,299.5C 59.1667,299.5 55.8333,299.5 52.5,299.5C 58.4686,287.565 64.9686,275.898 72,264.5C 72.6708,263.748 73.5041,263.414 74.5,263.5 Z"/></g>
<g><path style="opacity:0.953" fill="#a7a7a7" d="M 336.5,316.5 C 332.868,319.139 329.868,322.472 327.5,326.5C 312.964,318.772 307.797,306.772 312,290.5C 316.998,277.158 326.665,270.158 341,269.5C 350.51,269.333 358.51,272.667 365,279.5C 363.94,283.916 361.274,287.25 357,289.5C 347.277,280.281 337.61,280.281 328,289.5C 322.422,301.46 325.256,310.46 336.5,316.5 Z"/></g>
<g><path style="opacity:0.968" fill="#919191" d="M 456.5,275.5 C 454.322,279.338 452.322,283.338 450.5,287.5C 439.51,278.543 430.343,280.209 423,292.5C 420.227,301.009 422.06,308.343 428.5,314.5C 425.289,315.935 421.955,317.102 418.5,318C 417.619,318.708 416.953,319.542 416.5,320.5C 411.624,316.758 408.791,311.758 408,305.5C 405.888,286.552 414.055,274.719 432.5,270C 441.39,268.607 449.39,270.441 456.5,275.5 Z"/></g>
<g><path style="opacity:0.962" fill="#cbcbcb" d="M 193.5,291.5 C 183.209,294.323 172.876,296.989 162.5,299.5C 165.833,309.5 169.167,319.5 172.5,329.5C 168.563,329.793 164.73,329.46 161,328.5C 160.333,309.5 160.333,290.5 161,271.5C 165.333,270.167 169.667,270.167 174,271.5C 174.333,278.5 174.667,285.5 175,292.5C 181.316,285.35 187.816,278.35 194.5,271.5C 199.77,270.549 205.103,270.215 210.5,270.5C 210.392,272.783 209.559,274.783 208,276.5C 202.936,281.395 198.103,286.395 193.5,291.5 Z"/></g>
<g><path style="opacity:1" fill="#e0e0e0" d="M 34.5,271.5 C 40.8333,271.5 47.1667,271.5 53.5,271.5C 48.8987,279.861 43.8987,288.028 38.5,296C 32.6873,299.66 26.354,301.827 19.5,302.5C 18.3871,301.054 18.2204,299.387 19,297.5C 23.941,288.605 29.1077,279.938 34.5,271.5 Z"/></g>
<g><path style="opacity:1" fill="#dbdcdc" d="M 78.5,271.5 C 82.1667,271.5 85.8333,271.5 89.5,271.5C 93.6866,277.873 97.3533,284.539 100.5,291.5C 88.7571,295.103 76.7571,297.103 64.5,297.5C 69.1792,288.806 73.8458,280.14 78.5,271.5 Z"/></g>
<g><path style="opacity:1" fill="#d0d1d1" d="M 111.5,270.5 C 118.833,270.5 126.167,270.5 133.5,270.5C 141.019,270.175 148.352,270.508 155.5,271.5C 155.666,277.509 155.499,283.509 155,289.5C 151.167,294 147.333,298.5 143.5,303C 135.811,307.177 128.144,311.344 120.5,315.5C 123.021,310.293 125.687,305.126 128.5,300C 126.986,297.007 125.319,294.174 123.5,291.5C 119.765,284.365 115.765,277.365 111.5,270.5 Z"/></g>
<g><path style="opacity:0.991" fill="#7f7f80" d="M 510.5,290.5 C 505.983,291.718 502.316,294.052 499.5,297.5C 498.379,295.259 497.213,292.925 496,290.5C 493.91,294.981 491.743,299.314 489.5,303.5C 489.631,302.761 489.464,302.094 489,301.5C 483.341,305.004 477.841,308.67 472.5,312.5C 474.275,317.858 476.609,322.858 479.5,327.5C 479.389,328.117 479.056,328.617 478.5,329C 476.333,329.167 474.167,329.333 472,329.5C 469.3,329.609 466.8,329.109 464.5,328C 472.796,309.24 480.962,290.407 489,271.5C 493.413,270.368 497.913,270.201 502.5,271C 505.462,277.386 508.128,283.886 510.5,290.5 Z"/></g>
<g><path style="opacity:1" fill="#c0c0c0" d="M 229.5,311.5 C 225.076,311.652 220.743,312.319 216.5,313.5C 216.5,299.167 216.5,284.833 216.5,270.5C 230.171,270.333 243.837,270.5 257.5,271C 258.464,275.066 258.797,279.233 258.5,283.5C 248.833,283.5 239.167,283.5 229.5,283.5C 229.211,287.106 229.544,290.606 230.5,294C 238.827,294.5 247.16,294.666 255.5,294.5C 255.5,298.167 255.5,301.833 255.5,305.5C 247.16,305.334 238.827,305.5 230.5,306C 229.594,307.699 229.261,309.533 229.5,311.5 Z"/></g>
<g><path style="opacity:0.999" fill="#6d6e6e" d="M 565.5,305.5 C 564.448,305.351 563.448,305.517 562.5,306C 559.568,308.285 556.902,310.785 554.5,313.5C 552.852,311.571 551.185,309.571 549.5,307.5C 547.473,308.693 545.973,310.36 545,312.5C 544.667,317.833 544.333,323.167 544,328.5C 539.599,329.467 535.099,329.8 530.5,329.5C 530.5,309.833 530.5,290.167 530.5,270.5C 535.099,270.2 539.599,270.533 544,271.5C 544.333,278.5 544.667,285.5 545,292.5C 551.5,285.333 558,278.167 564.5,271C 569.823,270.501 575.156,270.334 580.5,270.5C 580.046,273.14 578.879,275.473 577,277.5C 571.167,283.833 565.333,290.167 559.5,296.5C 561.526,299.518 563.526,302.518 565.5,305.5 Z"/></g>
<g><path style="opacity:0.975" fill="#acacac" d="M 312.5,276.5 C 307.012,286.139 301.512,295.806 296,305.5C 295.667,313.167 295.333,320.833 295,328.5C 290.599,329.467 286.099,329.8 281.5,329.5C 281.666,321.493 281.5,313.493 281,305.5C 279.295,303.423 278.128,301.09 277.5,298.5C 288.31,292.923 298.31,286.089 307.5,278C 309.025,276.991 310.692,276.491 312.5,276.5 Z"/></g>
<g><path style="opacity:0.943" fill="#b8b8b8" d="M 312.5,276.5 C 310.692,276.491 309.025,276.991 307.5,278C 298.31,286.089 288.31,292.923 277.5,298.5C 271.444,289.72 266.444,280.386 262.5,270.5C 267.179,270.334 271.845,270.501 276.5,271C 280.124,277.751 284.124,284.251 288.5,290.5C 292.375,283.916 296.375,277.416 300.5,271C 305.155,270.501 309.821,270.334 314.5,270.5C 314.396,272.703 313.73,274.703 312.5,276.5 Z"/></g>
<g><path style="opacity:0.954" fill="#9b9b9b" d="M 385.5,316.5 C 382.772,320.737 379.439,324.571 375.5,328C 379.025,328.179 382.359,328.679 385.5,329.5C 380.5,329.5 375.5,329.5 370.5,329.5C 370.5,309.833 370.5,290.167 370.5,270.5C 375.099,270.2 379.599,270.533 384,271.5C 384.169,286.672 384.669,301.672 385.5,316.5 Z"/></g>
<g><path style="opacity:1" fill="#d1d1d2" d="M 100.5,291.5 C 102.924,294.008 104.59,297.008 105.5,300.5C 100.567,310.091 95.2332,319.424 89.5,328.5C 85.8333,328.5 82.1667,328.5 78.5,328.5C 73.4327,318.7 68.0993,309.033 62.5,299.5C 63.1667,298.833 63.8333,298.167 64.5,297.5C 76.7571,297.103 88.7571,295.103 100.5,291.5 Z"/></g>
<g><path style="opacity:1" fill="#0fb7e1" d="M 106.5,262.5 C 103.102,262.18 99.7683,262.513 96.5,263.5C 102.997,275.831 109.997,287.831 117.5,299.5C 119.521,296.765 121.521,294.099 123.5,291.5C 125.319,294.174 126.986,297.007 128.5,300C 125.687,305.126 123.021,310.293 120.5,315.5C 117.597,319.63 114.93,323.963 112.5,328.5C 110.735,331.709 108.735,334.709 106.5,337.5C 103.102,337.82 99.7683,337.487 96.5,336.5C 102.914,324.671 109.58,313.004 116.5,301.5C 112.893,300.511 109.226,300.177 105.5,300.5C 104.59,297.008 102.924,294.008 100.5,291.5C 97.3533,284.539 93.6866,277.873 89.5,271.5C 91.4081,268.688 93.0748,265.688 94.5,262.5C 98.6493,261.191 102.649,261.191 106.5,262.5 Z"/></g>
<g><path style="opacity:0.967" fill="#c3c3c3" d="M 193.5,291.5 C 191.998,293.175 190.665,295.008 189.5,297C 196.833,307.333 204.167,317.667 211.5,328C 208.861,329.118 206.027,329.618 203,329.5C 200.5,329.167 198,328.833 195.5,328.5C 190.167,321.5 184.833,314.5 179.5,307.5C 177.541,308.748 176.041,310.415 175,312.5C 174.667,317.833 174.333,323.167 174,328.5C 173.617,329.056 173.117,329.389 172.5,329.5C 169.167,319.5 165.833,309.5 162.5,299.5C 172.876,296.989 183.209,294.323 193.5,291.5 Z"/></g>
<g><path style="opacity:1" fill="#d6d7d7" d="M 53.5,271.5 C 54.5,271.5 55.5,271.5 56.5,271.5C 51.045,280.908 45.7116,290.408 40.5,300C 41.5565,303.293 43.2231,306.126 45.5,308.5C 48.6467,315.461 52.3134,322.127 56.5,328.5C 49.1667,328.5 41.8333,328.5 34.5,328.5C 28.9981,320.168 23.9981,311.501 19.5,302.5C 26.354,301.827 32.6873,299.66 38.5,296C 43.8987,288.028 48.8987,279.861 53.5,271.5 Z"/></g>
<g><path style="opacity:0.999" fill="#757575" d="M 510.5,290.5 C 516.994,302.97 522.327,315.97 526.5,329.5C 521.786,329.827 517.12,329.493 512.5,328.5C 511.027,324.749 509.36,321.083 507.5,317.5C 499.855,316.335 492.188,316.169 484.5,317C 482.93,320.636 481.263,324.136 479.5,327.5C 476.609,322.858 474.275,317.858 472.5,312.5C 477.841,308.67 483.341,305.004 489,301.5C 489.464,302.094 489.631,302.761 489.5,303.5C 493.298,304.483 497.298,304.817 501.5,304.5C 501.122,302.079 500.455,299.746 499.5,297.5C 502.316,294.052 505.983,291.718 510.5,290.5 Z"/></g>
<g><path style="opacity:1" fill="#36c5e7" d="M 52.5,299.5 C 55.8333,299.5 59.1667,299.5 62.5,299.5C 68.0993,309.033 73.4327,318.7 78.5,328.5C 77.6916,331.45 76.3582,334.117 74.5,336.5C 73.5041,336.586 72.6708,336.252 72,335.5C 65.1551,323.806 58.3217,312.139 51.5,300.5C 51.5,299.833 51.8333,299.5 52.5,299.5 Z"/></g>
<g><path style="opacity:1" fill="#0a8bab" d="M 105.5,300.5 C 109.226,300.177 112.893,300.511 116.5,301.5C 109.58,313.004 102.914,324.671 96.5,336.5C 99.7683,337.487 103.102,337.82 106.5,337.5C 102.649,338.809 98.6493,338.809 94.5,337.5C 93.0748,334.312 91.4081,331.312 89.5,328.5C 95.2332,319.424 100.567,310.091 105.5,300.5 Z"/></g>
<g><path style="opacity:1" fill="#0cb6e0" d="M 51.5,300.5 C 58.3217,312.139 65.1551,323.806 72,335.5C 72.6708,336.252 73.5041,336.586 74.5,336.5C 74.3893,337.117 74.056,337.617 73.5,338C 69.4589,338.827 65.4589,338.66 61.5,337.5C 60.0748,334.312 58.4081,331.312 56.5,328.5C 52.3134,322.127 48.6467,315.461 45.5,308.5C 47.5,305.833 49.5,303.167 51.5,300.5 Z"/></g>
<g><path style="opacity:1" fill="#c3c3c3" d="M 155.5,271.5 C 156.662,290.329 156.829,309.329 156,328.5C 148.921,329.48 141.755,329.813 134.5,329.5C 127.352,328.508 120.019,328.175 112.5,328.5C 114.93,323.963 117.597,319.63 120.5,315.5C 128.144,311.344 135.811,307.177 143.5,303C 147.333,298.5 151.167,294 155,289.5C 155.499,283.509 155.666,277.509 155.5,271.5 Z"/></g>
<g><path style="opacity:0.998" fill="#626262" d="M 565.5,305.5 C 570.079,312.314 574.913,318.981 580,325.5C 580.49,326.793 580.657,328.127 580.5,329.5C 575.489,329.666 570.489,329.499 565.5,329C 561.614,323.954 557.947,318.787 554.5,313.5C 556.902,310.785 559.568,308.285 562.5,306C 563.448,305.517 564.448,305.351 565.5,305.5 Z"/></g>
<g><path style="opacity:0.945" fill="#b6b6b6" d="M 229.5,311.5 C 229.5,313.167 229.5,314.833 229.5,316.5C 239.172,316.334 248.839,316.5 258.5,317C 259.626,320.744 259.793,324.577 259,328.5C 244.912,329.49 230.745,329.824 216.5,329.5C 216.5,324.167 216.5,318.833 216.5,313.5C 220.743,312.319 225.076,311.652 229.5,311.5 Z"/></g>
<g><path style="opacity:0.974" fill="#9c9c9c" d="M 327.5,326.5 C 329.868,322.472 332.868,319.139 336.5,316.5C 344.372,317.562 351.039,315.229 356.5,309.5C 360.512,311.97 363.012,315.304 364,319.5C 355.734,328.446 345.567,331.613 333.5,329C 331.277,328.434 329.277,327.6 327.5,326.5 Z"/></g>
<g><path style="opacity:0.998" fill="#868686" d="M 456.5,275.5 C 466.527,283.403 470.36,293.736 468,306.5C 463.531,321.294 453.531,328.961 438,329.5C 429.293,329.884 422.126,326.884 416.5,320.5C 416.953,319.542 417.619,318.708 418.5,318C 421.955,317.102 425.289,315.935 428.5,314.5C 443.055,320.387 451.722,315.554 454.5,300C 454.264,295.459 452.93,291.292 450.5,287.5C 452.322,283.338 454.322,279.338 456.5,275.5 Z"/></g>
<g><path style="opacity:0.941" fill="#8f9090" d="M 385.5,316.5 C 393.167,316.5 400.833,316.5 408.5,316.5C 408.5,320.833 408.5,325.167 408.5,329.5C 400.833,329.5 393.167,329.5 385.5,329.5C 382.359,328.679 379.025,328.179 375.5,328C 379.439,324.571 382.772,320.737 385.5,316.5 Z"/></g>
<g><path style="opacity:0.984" fill="#4e4e4e" d="M 34.5,328.5 C 41.8333,328.5 49.1667,328.5 56.5,328.5C 58.4081,331.312 60.0748,334.312 61.5,337.5C 65.4589,338.66 69.4589,338.827 73.5,338C 74.056,337.617 74.3893,337.117 74.5,336.5C 76.3582,334.117 77.6916,331.45 78.5,328.5C 82.1667,328.5 85.8333,328.5 89.5,328.5C 91.4081,331.312 93.0748,334.312 94.5,337.5C 98.6493,338.809 102.649,338.809 106.5,337.5C 108.735,334.709 110.735,331.709 112.5,328.5C 120.019,328.175 127.352,328.508 134.5,329.5C 129.194,338.483 123.861,347.483 118.5,356.5C 95.8407,357.666 73.174,357.833 50.5,357C 44.7625,347.688 39.4292,338.188 34.5,328.5 Z"/></g>
</svg>
