<svg id="svg" version="1.1" xmlns="http://www.w3.org/2000/svg" xmlns:xlink="http://www.w3.org/1999/xlink" width="400" height="400" viewBox="0, 0, 400,400"><g id="svgg"><path id="path0" d="M165.234 121.872 L 148.633 122.064 169.464 122.263 L 190.295 122.461 184.931 129.688 C 181.982 133.662,178.394 138.496,176.958 140.430 C 175.523 142.363,172.758 146.090,170.814 148.712 C 168.870 151.333,167.156 153.354,167.005 153.204 C 166.854 153.053,168.158 155.391,169.902 158.398 C 171.647 161.406,173.007 164.135,172.925 164.463 C 172.788 165.009,151.447 202.211,149.345 205.566 L 148.428 207.031 164.546 207.025 C 173.411 207.022,180.871 206.888,181.124 206.727 C 181.377 206.566,185.135 200.284,189.474 192.768 C 193.814 185.251,197.562 178.972,197.803 178.815 C 198.045 178.657,201.670 178.528,205.859 178.528 C 214.929 178.528,213.587 177.794,217.800 185.059 C 222.386 192.967,222.167 192.960,226.508 185.353 C 230.831 177.780,229.530 178.515,238.602 178.522 C 247.765 178.529,246.424 177.797,250.608 185.078 C 255.097 192.889,254.836 192.891,259.408 185.019 C 263.299 178.321,263.073 178.529,266.443 178.522 C 269.563 178.514,269.223 178.176,273.438 185.470 C 277.658 192.773,277.478 192.777,281.797 185.299 C 283.550 182.263,285.221 179.494,285.509 179.147 C 285.971 178.590,287.479 178.516,298.270 178.516 L 310.507 178.516 311.444 179.785 C 311.960 180.483,313.652 183.296,315.205 186.035 C 318.984 192.704,318.861 192.713,323.059 185.449 C 327.289 178.129,326.886 178.516,330.273 178.516 C 333.661 178.516,333.258 178.129,337.488 185.449 C 341.738 192.803,341.413 192.834,346.106 184.621 C 349.963 177.869,348.706 178.516,357.975 178.516 C 367.058 178.516,366.044 178.104,368.783 182.905 C 370.903 186.619,370.164 186.959,377.113 179.072 C 383.746 171.542,383.308 171.913,383.936 173.291 C 384.496 174.522,384.649 174.394,386.329 171.289 C 387.027 170.000,388.191 167.956,388.916 166.746 C 389.641 165.536,390.234 164.411,390.234 164.246 C 390.234 164.080,384.839 154.585,378.245 143.144 L 366.256 122.343 359.593 122.108 C 351.205 121.811,187.603 121.613,165.234 121.872 M42.285 122.168 C 46.743 122.230,54.038 122.230,58.496 122.168 C 62.954 122.105,59.307 122.054,50.391 122.054 C 41.475 122.054,37.827 122.105,42.285 122.168 M103.201 122.166 C 105.499 122.235,109.366 122.235,111.795 122.167 C 114.224 122.098,112.344 122.042,107.617 122.041 C 102.891 122.041,100.903 122.097,103.201 122.166 M32.407 123.730 C 31.927 124.536,31.132 125.907,30.642 126.777 C 30.151 127.647,27.867 131.602,25.565 135.566 C 23.263 139.530,20.901 143.652,20.316 144.727 C 19.731 145.801,18.436 148.047,17.439 149.718 C 16.441 151.390,15.625 152.928,15.625 153.136 C 15.625 153.345,15.449 153.516,15.234 153.516 C 15.020 153.516,14.844 153.681,14.844 153.884 C 14.844 154.086,13.735 156.152,12.380 158.474 C 9.876 162.763,8.714 165.199,10.067 163.320 C 10.438 162.804,11.284 161.398,11.945 160.195 C 13.990 156.477,32.043 125.282,33.047 123.730 C 33.569 122.925,33.835 122.266,33.638 122.266 C 33.441 122.266,32.887 122.925,32.407 123.730 M9.375 165.061 C 9.375 165.266,10.452 167.278,11.769 169.533 C 15.159 175.340,15.597 176.105,16.909 178.516 C 17.552 179.697,18.273 180.928,18.512 181.250 C 18.750 181.572,19.182 182.256,19.470 182.768 C 20.257 184.165,21.225 185.851,22.862 188.672 C 23.672 190.068,24.776 192.002,25.314 192.969 C 28.371 198.454,33.013 206.122,33.532 206.543 C 34.142 207.038,66.406 207.308,66.406 206.819 C 66.406 206.375,63.492 201.563,63.224 201.563 C 63.069 201.563,61.041 202.705,58.717 204.101 L 54.492 206.639 44.330 206.640 L 34.167 206.641 32.806 204.400 C 32.058 203.168,31.375 201.982,31.290 201.764 C 31.204 201.546,30.659 200.664,30.077 199.805 C 29.496 198.945,27.707 195.957,26.101 193.164 C 12.260 169.090,9.375 164.242,9.375 165.061 M138.176 167.245 L 136.827 169.646 125.542 173.693 C 119.336 175.919,109.863 179.316,104.492 181.243 C 95.393 184.507,88.454 187.591,88.813 188.210 C 96.115 200.807,99.219 206.300,99.219 206.624 C 99.219 206.894,102.036 207.031,107.554 207.031 L 115.890 207.031 116.359 206.003 C 116.616 205.438,121.804 196.341,127.888 185.788 C 139.794 165.136,139.958 164.844,139.698 164.844 C 139.602 164.844,138.917 165.924,138.176 167.245 M382.903 173.828 C 382.903 174.580,382.984 174.888,383.082 174.512 C 383.180 174.136,383.180 173.521,383.082 173.145 C 382.984 172.769,382.903 173.076,382.903 173.828 M167.578 269.370 C 164.106 269.848,161.954 270.412,161.193 271.044 C 160.945 271.250,160.566 271.454,160.352 271.498 C 156.820 272.221,151.113 277.670,148.162 283.135 C 146.269 286.641,145.385 294.071,146.251 299.196 C 149.558 318.770,174.448 326.349,189.150 312.259 C 191.583 309.927,191.563 309.831,187.817 306.003 C 184.063 302.166,184.433 302.259,181.914 304.524 C 171.008 314.329,154.858 305.447,157.834 291.280 C 160.203 280.001,174.398 276.052,182.706 284.361 C 184.770 286.424,184.592 286.488,188.243 282.370 C 191.929 278.212,191.897 278.342,189.754 276.220 C 185.102 271.614,180.369 269.718,171.680 268.980 C 171.250 268.943,169.404 269.119,167.578 269.370 M250.000 269.186 C 234.946 270.839,225.247 283.744,227.747 298.793 C 228.510 303.382,231.919 310.222,233.673 310.681 C 234.054 310.780,234.538 311.315,234.748 311.869 C 235.006 312.547,235.328 312.800,235.734 312.644 C 236.169 312.477,236.270 312.588,236.095 313.042 C 235.937 313.455,236.063 313.672,236.462 313.672 C 236.797 313.672,237.250 313.979,237.469 314.355 C 237.688 314.731,237.872 314.874,237.879 314.671 C 237.885 314.469,238.117 314.613,238.393 314.991 C 238.870 315.643,238.897 315.642,238.925 314.968 C 238.973 313.832,239.861 308.882,240.080 308.527 C 240.190 308.349,241.896 308.189,243.871 308.171 C 247.063 308.143,247.340 308.086,246.370 307.657 C 244.973 307.038,241.960 303.777,240.920 301.758 C 233.770 287.876,248.833 272.757,260.876 281.728 C 262.675 283.068,265.401 286.241,265.444 287.044 C 265.451 287.187,265.647 287.656,265.878 288.086 C 267.128 290.410,267.370 296.104,266.337 298.880 C 265.966 299.875,265.772 300.798,265.904 300.931 C 266.037 301.063,265.906 301.172,265.612 301.172 C 263.530 301.172,266.680 302.000,270.898 302.562 C 273.916 302.964,276.150 303.450,276.405 303.761 C 276.821 304.267,277.231 303.362,278.005 300.230 C 278.467 298.362,278.472 289.077,278.012 289.168 C 277.731 289.223,277.304 288.019,276.908 286.061 C 276.553 284.303,275.890 282.342,275.436 281.704 C 274.981 281.066,274.609 280.393,274.609 280.209 C 274.609 280.026,274.258 279.656,273.828 279.388 C 273.398 279.119,273.047 278.685,273.047 278.422 C 273.047 275.812,262.844 269.958,257.227 269.344 C 255.938 269.204,254.443 269.038,253.906 268.976 C 253.369 268.915,251.611 269.009,250.000 269.186 M196.094 294.594 L 196.094 318.876 206.934 318.618 C 212.896 318.477,220.103 318.361,222.949 318.360 L 228.125 318.359 228.125 313.945 C 228.125 308.130,229.062 308.594,217.305 308.594 L 207.422 308.594 207.422 289.453 L 207.422 270.313 201.758 270.313 L 196.094 270.313 196.094 294.594 M146.094 274.447 C 145.557 274.745,144.831 274.991,144.481 274.994 C 143.522 275.003,142.988 275.878,143.155 277.167 C 143.238 277.801,143.318 278.643,143.332 279.036 C 143.382 280.343,144.228 279.491,145.713 276.643 C 146.520 275.095,147.155 273.845,147.125 273.866 C 147.095 273.887,146.631 274.149,146.094 274.447 M77.493 284.961 C 77.494 287.539,77.557 288.543,77.633 287.192 C 77.710 285.841,77.709 283.731,77.632 282.504 C 77.555 281.277,77.492 282.383,77.493 284.961 M139.316 286.513 C 139.195 286.827,139.246 287.177,139.429 287.290 C 139.612 287.403,139.861 287.238,139.981 286.924 C 140.102 286.610,140.051 286.261,139.868 286.148 C 139.685 286.034,139.436 286.199,139.316 286.513 M138.398 288.369 C 137.557 289.455,137.454 289.837,138.063 289.603 C 138.396 289.476,138.579 289.229,138.472 289.055 C 138.364 288.881,138.497 288.660,138.767 288.563 C 139.037 288.467,139.151 288.272,139.021 288.130 C 138.890 287.988,138.610 288.096,138.398 288.369 M126.068 288.515 C 125.968 288.615,126.050 289.526,126.249 290.540 C 126.448 291.553,126.689 292.998,126.785 293.750 C 126.881 294.502,127.049 295.557,127.158 296.094 C 127.533 297.935,127.652 298.646,128.721 305.384 C 129.310 309.097,129.724 312.181,129.642 312.237 C 129.560 312.292,127.697 312.789,125.504 313.341 L 121.515 314.344 121.383 311.371 C 121.297 309.444,121.223 310.218,121.172 313.574 L 121.094 318.750 126.758 318.750 L 132.422 318.750 132.422 309.174 C 132.422 299.715,132.570 298.461,133.789 297.565 C 134.004 297.407,134.021 297.275,133.826 297.272 C 133.632 297.268,133.806 296.898,134.212 296.448 C 134.943 295.640,134.938 295.619,133.749 294.593 C 131.417 292.580,128.922 290.601,128.623 290.527 C 128.456 290.486,127.854 289.976,127.285 289.393 C 126.715 288.810,126.168 288.415,126.068 288.515 M77.493 304.102 C 77.494 306.680,77.557 307.684,77.633 306.332 C 77.710 304.981,77.709 302.872,77.632 301.645 C 77.555 300.418,77.492 301.523,77.493 304.102 M262.355 306.064 C 262.233 306.381,261.909 306.642,261.633 306.643 C 261.358 306.645,260.605 307.001,259.961 307.435 L 258.789 308.225 262.012 308.159 C 265.625 308.085,265.791 307.939,263.905 306.501 C 262.828 305.679,262.535 305.596,262.355 306.064 M227.629 316.691 C 227.544 317.501,227.474 316.934,227.472 315.430 C 227.470 313.926,227.539 313.263,227.626 313.956 C 227.712 314.650,227.713 315.880,227.629 316.691 " stroke="none" fill="#9f9e9e" fill-rule="evenodd"></path><path id="path1" d="M58.789 135.577 C 49.980 150.842,42.721 163.646,42.656 164.030 C 42.592 164.414,47.607 173.499,53.802 184.219 C 59.997 194.940,67.244 207.534,69.907 212.207 L 74.749 220.703 82.911 220.703 L 91.073 220.703 89.796 218.457 C 89.093 217.222,87.388 214.277,86.007 211.914 C 78.975 199.883,58.904 165.088,58.721 164.611 C 58.544 164.151,59.826 164.062,66.657 164.057 L 74.805 164.052 81.618 152.241 C 85.365 145.745,90.873 136.186,93.857 131.000 L 99.284 121.571 95.305 114.692 L 91.325 107.813 83.065 107.817 L 74.805 107.822 58.789 135.577 M119.959 114.622 C 116.414 120.748,116.038 121.579,116.449 122.363 C 116.702 122.847,122.157 132.342,128.572 143.465 C 134.986 154.587,140.234 163.928,140.234 164.222 C 140.234 164.516,135.119 173.609,128.866 184.429 C 122.613 195.249,117.174 204.734,116.778 205.508 L 116.060 206.914 120.009 213.808 L 123.958 220.703 132.207 220.703 L 140.456 220.703 144.532 213.574 C 146.774 209.653,154.027 197.050,160.649 185.568 C 167.272 174.085,172.639 164.402,172.576 164.051 C 172.245 162.209,165.025 150.435,164.584 151.019 C 164.334 151.350,162.510 154.420,160.530 157.841 C 158.551 161.263,156.822 164.055,156.688 164.045 C 156.555 164.036,155.028 161.531,153.297 158.479 C 146.974 147.335,124.508 108.389,124.224 108.079 C 124.063 107.903,122.144 110.847,119.959 114.622 " stroke="none" fill="#15acd4" fill-rule="evenodd"></path><path id="path2" d="M57.813 79.883 C 57.813 80.205,57.657 80.469,57.467 80.469 C 57.278 80.469,57.019 80.776,56.893 81.152 C 56.767 81.528,56.489 82.100,56.277 82.422 C 55.568 83.495,52.734 88.359,52.734 88.501 C 52.734 88.578,51.812 90.191,50.684 92.084 C 49.556 93.977,48.369 96.050,48.047 96.689 C 47.726 97.328,47.374 97.940,47.266 98.047 C 47.158 98.155,46.740 98.858,46.337 99.610 C 44.805 102.463,43.633 104.513,43.211 105.078 C 42.710 105.749,42.014 106.938,40.804 109.189 C 40.340 110.053,39.243 111.940,38.368 113.381 C 37.492 114.822,36.664 116.355,36.526 116.787 C 36.389 117.220,36.069 117.803,35.814 118.083 C 35.560 118.363,34.950 119.333,34.459 120.238 L 33.566 121.884 50.077 121.782 L 66.589 121.680 70.111 115.603 C 72.048 112.261,73.947 109.049,74.330 108.466 L 75.028 107.406 83.258 107.512 L 91.488 107.617 95.346 114.258 C 97.468 117.910,99.207 121.118,99.211 121.387 C 99.217 121.761,101.113 121.875,107.366 121.875 L 115.513 121.875 119.623 114.746 L 123.733 107.617 132.137 107.512 L 140.540 107.407 144.651 114.543 L 148.762 121.680 165.006 121.782 C 176.680 121.855,181.250 121.762,181.250 121.451 C 181.250 121.041,180.105 118.776,179.687 118.359 C 179.579 118.252,179.228 117.637,178.906 116.992 C 178.584 116.348,177.520 114.501,176.541 112.889 C 175.563 111.277,174.493 109.431,174.164 108.787 C 173.465 107.422,172.661 106.019,170.174 101.823 C 169.176 100.140,168.359 98.602,168.359 98.405 C 168.359 98.208,168.184 98.047,167.969 98.047 C 167.754 98.047,167.578 97.876,167.578 97.667 C 167.578 97.459,166.762 95.921,165.764 94.250 C 164.767 92.578,163.474 90.332,162.891 89.258 C 162.308 88.184,161.014 85.937,160.017 84.266 C 159.019 82.595,158.203 81.084,158.203 80.909 C 158.203 80.733,157.882 80.299,157.489 79.943 C 156.446 78.999,57.813 78.940,57.813 79.883 M197.575 179.590 C 197.248 179.966,193.598 186.162,189.462 193.359 C 185.327 200.557,181.779 206.621,181.578 206.836 C 181.351 207.078,174.957 207.301,164.744 207.422 L 148.275 207.617 144.743 213.715 C 142.800 217.068,140.970 220.101,140.675 220.453 C 139.880 221.403,124.584 221.419,123.797 220.470 C 123.512 220.127,121.686 217.095,119.739 213.732 L 116.199 207.617 107.749 207.512 L 99.300 207.407 95.509 213.957 C 93.424 217.560,91.516 220.637,91.269 220.795 C 90.256 221.442,75.131 221.135,74.560 220.456 C 74.265 220.105,72.430 217.072,70.483 213.717 L 66.943 207.617 50.366 207.422 C 31.637 207.201,33.216 207.096,34.213 208.501 C 34.631 209.089,35.233 210.097,35.552 210.740 C 35.872 211.383,37.214 213.706,38.535 215.902 C 39.857 218.098,41.174 220.428,41.463 221.080 C 41.751 221.732,42.120 222.266,42.283 222.266 C 42.445 222.266,42.578 222.413,42.578 222.594 C 42.578 222.881,49.487 235.047,54.659 243.866 C 55.642 245.541,56.694 247.387,56.999 247.967 C 58.110 250.087,55.280 249.975,107.617 249.982 C 134.473 249.985,156.645 249.859,156.889 249.701 C 157.134 249.543,157.661 248.857,158.061 248.176 C 159.788 245.238,162.658 240.309,163.481 238.867 C 163.971 238.008,165.293 235.723,166.419 233.789 C 167.544 231.855,168.998 229.307,169.650 228.125 C 170.301 226.943,171.276 225.273,171.815 224.414 C 172.354 223.555,173.263 221.973,173.836 220.898 C 174.408 219.824,175.695 217.568,176.696 215.886 C 177.697 214.203,178.516 212.665,178.516 212.468 C 178.516 212.271,178.648 212.109,178.811 212.109 C 178.973 212.109,179.352 211.538,179.653 210.840 C 179.955 210.142,180.537 209.087,180.947 208.496 L 181.694 207.422 273.787 207.422 L 365.879 207.422 366.691 206.543 C 367.137 206.060,367.849 205.049,368.272 204.297 C 368.696 203.545,370.054 201.172,371.290 199.023 C 372.526 196.875,373.910 194.414,374.366 193.555 C 374.822 192.695,375.327 191.934,375.488 191.862 C 376.217 191.538,375.674 191.167,374.685 191.312 C 373.305 191.514,373.273 191.474,369.327 184.658 L 366.111 179.102 358.044 178.996 L 349.976 178.890 348.592 181.144 C 347.831 182.384,346.162 185.200,344.884 187.402 C 341.458 193.305,341.602 193.359,336.306 184.204 L 333.354 179.102 330.267 179.102 L 327.180 179.102 323.645 185.156 C 318.920 193.250,318.944 193.248,314.844 186.113 C 313.232 183.309,311.601 180.538,311.218 179.955 L 310.522 178.895 298.147 178.998 L 285.773 179.102 282.239 185.156 C 277.514 193.250,277.538 193.248,273.438 186.113 C 268.848 178.127,269.594 178.855,266.142 178.988 L 263.183 179.102 259.968 184.658 C 254.855 193.494,255.110 193.467,250.592 185.655 C 248.824 182.599,247.156 179.830,246.884 179.503 C 246.470 179.004,245.093 178.906,238.465 178.906 L 230.541 178.906 227.107 184.863 C 222.137 193.484,222.360 193.460,217.957 185.840 C 213.484 178.099,214.892 178.906,205.859 178.906 C 199.021 178.906,198.102 178.982,197.575 179.590 M342.356 279.492 C 342.356 284.648,342.412 286.704,342.479 284.060 C 342.547 281.415,342.547 277.197,342.479 274.685 C 342.411 272.173,342.356 274.336,342.356 279.492 M342.347 311.719 C 342.347 315.264,342.406 316.714,342.478 314.941 C 342.551 313.169,342.551 310.269,342.478 308.496 C 342.406 306.724,342.347 308.174,342.347 311.719 M370.399 314.400 C 370.167 314.543,368.164 314.710,365.946 314.772 C 363.729 314.834,361.645 314.962,361.316 315.058 C 360.584 315.272,359.682 317.480,360.197 317.799 C 360.397 317.922,360.456 318.191,360.329 318.396 C 360.185 318.629,362.563 318.729,366.665 318.662 C 373.915 318.544,374.406 318.346,372.517 316.308 C 371.994 315.744,371.618 315.228,371.681 315.161 C 371.959 314.867,370.777 314.166,370.399 314.400 " stroke="none" fill="#4c4c4c" fill-rule="evenodd"></path><path id="path3" d="M77.734 107.692 C 84.972 107.972,91.709 107.983,91.542 107.715 C 91.442 107.554,87.635 107.457,83.082 107.500 C 78.530 107.544,76.123 107.630,77.734 107.692 M40.039 207.312 C 54.991 207.585,67.097 207.591,66.932 207.324 C 66.832 207.163,59.422 207.070,50.465 207.118 C 41.508 207.166,36.816 207.253,40.039 207.312 M99.083 207.324 C 98.983 207.485,102.682 207.566,107.303 207.505 C 113.331 207.424,115.861 207.522,116.259 207.853 C 116.708 208.225,116.768 208.190,116.569 207.672 C 116.306 206.989,99.499 206.654,99.083 207.324 M148.302 207.324 C 148.137 207.591,160.613 207.585,175.000 207.312 C 178.115 207.252,173.423 207.165,164.574 207.118 C 155.724 207.070,148.402 207.163,148.302 207.324 M367.673 272.024 C 367.138 274.024,367.122 274.029,360.352 274.431 L 356.055 274.686 353.906 276.931 C 352.725 278.165,350.088 280.995,348.047 283.218 C 346.006 285.441,343.896 287.709,343.359 288.259 L 342.383 289.258 342.276 282.532 L 342.169 275.807 338.956 276.039 C 337.188 276.167,334.731 276.381,333.495 276.515 L 331.248 276.758 331.028 297.754 L 330.807 318.750 336.533 318.750 L 342.258 318.750 342.142 312.203 C 342.078 308.602,342.161 305.438,342.325 305.172 C 342.490 304.905,342.499 304.485,342.346 304.237 C 342.180 303.969,342.238 303.891,342.487 304.045 C 342.717 304.188,343.802 303.380,344.897 302.250 C 347.121 299.955,346.656 299.881,348.942 302.894 C 349.417 303.519,350.024 304.253,350.293 304.526 C 350.562 304.799,350.781 305.113,350.781 305.225 C 350.781 305.336,351.616 306.543,352.637 307.906 C 353.657 309.269,355.617 311.915,356.991 313.786 C 359.689 317.458,360.015 317.692,360.383 316.225 C 360.689 315.004,361.056 314.908,365.946 314.772 C 370.860 314.635,371.082 314.526,369.897 312.833 C 366.739 308.321,359.182 297.819,358.977 297.656 C 358.598 297.355,355.478 292.666,355.234 292.030 C 355.115 291.721,355.458 290.970,355.997 290.362 C 356.535 289.755,357.318 288.860,357.737 288.374 C 359.060 286.839,364.608 280.721,365.607 279.695 C 366.135 279.154,367.888 277.217,369.504 275.391 C 371.120 273.564,372.666 271.838,372.940 271.554 C 373.884 270.575,373.429 270.313,370.784 270.313 L 368.131 270.313 367.673 272.024 M320.014 304.166 C 319.581 305.634,318.572 309.209,317.771 312.109 C 316.970 315.010,316.155 317.582,315.960 317.825 C 315.362 318.572,316.579 318.750,322.275 318.750 C 327.884 318.750,328.483 318.590,327.539 317.343 C 327.230 316.935,326.972 316.372,326.966 316.091 C 326.959 315.811,326.426 314.518,325.781 313.219 C 325.137 311.920,324.609 310.712,324.609 310.534 C 324.609 310.356,323.752 308.249,322.704 305.853 L 320.800 301.496 320.014 304.166 " stroke="none" fill="#6c6b6b" fill-rule="evenodd"></path><path id="path4" d="M33.047 123.730 C 31.967 125.399,13.762 156.884,11.985 160.156 C 11.343 161.338,10.493 162.772,10.095 163.344 L 9.372 164.383 11.855 168.617 C 13.221 170.946,17.286 177.949,20.890 184.180 C 24.493 190.410,28.253 196.826,29.245 198.438 C 30.238 200.049,31.315 201.823,31.638 202.380 C 31.962 202.937,32.654 204.123,33.177 205.017 L 34.128 206.641 44.290 206.641 L 54.451 206.641 58.826 204.037 L 63.201 201.434 61.818 198.862 C 60.004 195.489,51.838 181.316,49.983 178.320 C 47.056 173.596,42.188 164.814,42.188 164.259 C 42.188 163.945,47.348 154.764,53.655 143.856 C 59.962 132.948,65.329 123.628,65.582 123.145 L 66.043 122.266 50.019 122.266 L 33.995 122.266 33.047 123.730 M98.517 123.535 C 93.517 131.825,75.391 163.761,75.391 164.280 C 75.391 164.812,85.228 182.349,88.144 187.017 L 88.697 187.901 92.102 186.162 C 93.975 185.206,99.463 183.015,104.297 181.294 C 109.131 179.573,118.419 176.251,124.938 173.912 L 136.790 169.660 138.317 167.028 C 139.157 165.580,139.844 164.252,139.844 164.077 C 139.844 163.797,128.431 143.773,119.185 127.832 L 115.957 122.266 107.620 122.266 L 99.282 122.266 98.517 123.535 M149.219 122.425 C 149.219 122.574,163.967 148.219,165.369 150.506 C 165.724 151.087,166.288 152.008,166.620 152.553 L 167.224 153.544 168.908 151.284 C 180.162 136.173,189.580 123.426,189.986 122.754 C 190.220 122.366,186.071 122.266,169.750 122.266 C 158.458 122.266,149.219 122.337,149.219 122.425 M84.278 270.996 C 83.697 271.648,79.688 279.386,79.688 279.854 C 79.688 280.467,101.089 280.077,101.325 279.460 C 101.634 278.657,101.634 271.734,101.325 270.930 C 100.948 269.947,85.158 270.008,84.278 270.996 M104.688 270.460 C 104.688 270.759,105.903 273.277,106.597 274.414 C 106.990 275.059,107.706 276.289,108.188 277.148 C 108.671 278.008,110.058 280.432,111.271 282.535 C 112.484 284.638,113.831 287.011,114.265 287.808 C 114.698 288.606,115.330 289.697,115.668 290.234 C 116.006 290.771,117.320 292.955,118.587 295.087 L 120.892 298.964 121.157 304.658 C 121.303 307.789,121.436 311.252,121.453 312.352 L 121.484 314.352 125.488 313.345 C 127.690 312.791,129.560 312.292,129.642 312.237 C 129.724 312.181,129.310 309.097,128.721 305.384 C 127.652 298.646,127.533 297.935,127.158 296.094 C 127.049 295.557,126.881 294.502,126.785 293.750 C 126.689 292.998,126.448 291.553,126.249 290.540 C 125.792 288.216,125.972 288.050,127.383 289.493 C 128.006 290.130,128.516 290.524,128.516 290.367 C 128.516 290.210,129.087 290.608,129.785 291.253 C 132.687 293.931,135.645 296.028,134.961 294.922 C 134.828 294.707,134.924 294.531,135.175 294.531 C 135.425 294.531,135.529 294.268,135.406 293.945 C 135.269 293.588,135.405 293.359,135.754 293.359 C 136.109 293.359,136.328 292.978,136.328 292.360 C 136.328 291.793,136.497 291.465,136.719 291.602 C 136.934 291.734,137.109 291.588,137.109 291.276 C 137.109 290.964,137.373 290.607,137.695 290.484 C 138.018 290.360,138.281 290.067,138.281 289.833 C 138.281 289.599,138.088 289.526,137.852 289.673 C 137.558 289.854,137.566 289.669,137.877 289.088 C 138.128 288.620,138.588 288.139,138.900 288.019 C 139.212 287.900,139.443 287.602,139.414 287.358 C 139.296 286.378,139.475 285.905,139.870 286.149 C 140.100 286.291,140.383 286.038,140.502 285.586 C 140.620 285.135,140.886 284.766,141.094 284.766 C 141.301 284.766,141.399 284.550,141.311 284.286 C 141.223 284.022,141.477 283.457,141.874 283.030 C 142.272 282.603,142.507 282.019,142.397 281.732 C 142.287 281.444,142.358 281.309,142.554 281.431 C 142.875 281.629,143.596 280.218,143.459 279.658 C 142.630 276.248,143.150 274.998,145.447 274.876 C 146.195 274.837,146.783 274.717,146.755 274.609 C 146.727 274.502,147.198 273.677,147.803 272.776 C 149.386 270.418,149.165 270.313,142.650 270.313 L 136.908 270.313 135.775 272.168 C 134.775 273.804,133.401 276.174,130.919 280.543 C 130.515 281.254,129.536 282.936,128.743 284.281 C 127.951 285.626,127.400 286.885,127.520 287.079 C 127.640 287.273,127.469 287.392,127.140 287.344 C 126.600 287.264,125.219 285.156,122.381 280.078 C 121.841 279.111,120.338 276.519,119.042 274.316 L 116.686 270.313 110.687 270.313 C 107.387 270.313,104.688 270.379,104.688 270.460 M77.037 283.103 C 76.967 285.144,76.653 286.129,75.111 289.157 C 74.098 291.146,73.307 292.905,73.353 293.066 C 73.400 293.228,73.262 293.359,73.047 293.359 C 72.832 293.359,72.655 293.579,72.652 293.848 C 72.638 295.697,66.863 305.859,66.769 304.199 C 66.754 303.931,66.591 304.063,66.406 304.492 C 66.222 304.922,66.058 308.306,66.043 312.012 L 66.016 318.750 83.932 318.750 L 101.849 318.750 101.904 313.873 L 101.959 308.996 89.749 308.892 L 77.539 308.789 77.429 304.199 L 77.319 299.609 87.655 299.609 C 96.531 299.609,98.078 299.523,98.605 298.996 C 99.611 297.990,99.357 289.317,98.325 289.424 C 98.172 289.440,93.394 289.453,87.708 289.453 L 77.369 289.453 77.245 285.059 C 77.176 282.642,77.083 281.761,77.037 283.103 M51.821 304.975 C 51.687 305.192,51.269 307.344,50.891 309.756 L 50.205 314.143 48.637 314.779 C 47.776 315.128,46.925 315.369,46.748 315.314 C 46.356 315.193,46.689 315.804,47.929 317.480 L 48.868 318.750 55.033 318.750 C 61.645 318.750,61.917 318.692,61.262 317.429 C 60.670 316.287,56.909 311.163,56.546 311.003 C 56.383 310.931,56.250 310.630,56.250 310.333 C 56.250 310.036,55.898 309.605,55.469 309.375 C 55.039 309.145,54.688 308.699,54.688 308.385 C 54.688 308.070,54.380 307.810,54.004 307.807 C 53.420 307.801,53.406 307.745,53.906 307.422 C 54.442 307.075,54.179 306.857,53.389 306.995 C 53.212 307.025,53.154 306.910,53.261 306.737 C 53.367 306.565,53.142 306.009,52.760 305.502 C 52.365 304.980,51.960 304.752,51.821 304.975 M42.473 310.156 C 42.841 310.586,43.191 310.938,43.251 310.938 C 43.508 310.938,43.129 309.935,42.773 309.674 C 41.998 309.104,41.819 309.392,42.473 310.156 " stroke="none" fill="#bbbcbc" fill-rule="evenodd"></path><path id="path5" d="M19.147 294.531 L 19.163 318.750 22.691 318.750 C 25.409 318.750,26.151 318.638,25.925 318.262 C 25.708 317.902,25.797 317.908,26.263 318.286 C 26.632 318.584,27.599 318.747,28.584 318.676 L 30.273 318.555 30.381 311.934 C 30.472 306.325,30.591 305.196,31.162 304.543 C 31.674 303.957,31.695 303.839,31.250 304.053 C 30.928 304.207,31.098 304.017,31.628 303.631 C 32.981 302.646,34.766 300.739,34.766 300.279 C 34.766 300.066,35.294 300.576,35.940 301.411 C 36.586 302.246,37.509 303.439,37.991 304.061 C 38.473 304.683,38.982 305.487,39.122 305.847 C 39.463 306.723,42.498 309.766,43.032 309.766 C 43.291 309.766,43.248 310.021,42.919 310.427 C 42.555 310.876,42.539 310.993,42.871 310.794 C 43.186 310.605,43.359 310.739,43.359 311.173 C 43.359 311.542,43.931 312.369,44.629 313.011 C 45.327 313.653,45.649 314.035,45.343 313.861 C 45.004 313.667,45.080 313.932,45.539 314.542 C 46.340 315.608,46.689 315.626,48.834 314.713 L 50.207 314.129 50.896 309.728 C 51.274 307.308,51.755 305.122,51.963 304.871 C 52.220 304.562,52.091 304.189,51.561 303.710 C 51.132 303.322,50.780 302.811,50.777 302.576 C 50.774 302.178,49.581 300.522,46.976 297.300 C 46.383 296.567,45.510 295.287,45.035 294.456 C 44.561 293.625,43.901 292.674,43.570 292.343 C 42.955 291.727,42.734 290.849,43.262 291.119 C 43.423 291.201,44.045 290.772,44.645 290.166 C 45.244 289.559,45.640 289.063,45.524 289.063 C 45.408 289.063,45.972 288.382,46.778 287.550 C 47.583 286.719,49.561 284.588,51.172 282.815 C 55.299 278.275,55.421 278.139,57.813 275.393 C 58.994 274.036,60.313 272.549,60.742 272.089 C 62.342 270.378,62.129 270.313,54.911 270.313 L 48.103 270.313 46.415 271.996 C 45.486 272.922,43.936 274.566,42.969 275.649 C 42.002 276.732,39.541 279.415,37.500 281.611 C 35.459 283.807,33.043 286.426,32.131 287.431 L 30.472 289.258 30.470 279.785 L 30.469 270.313 24.799 270.313 L 19.130 270.313 19.147 294.531 M66.043 287.793 C 66.059 297.913,66.212 304.944,66.406 304.492 C 66.591 304.063,66.754 303.931,66.769 304.199 C 66.863 305.859,72.638 295.697,72.652 293.848 C 72.655 293.579,72.832 293.359,73.047 293.359 C 73.262 293.359,73.400 293.228,73.353 293.066 C 73.307 292.905,74.098 291.146,75.111 289.157 C 76.634 286.167,76.953 285.175,76.953 283.427 C 76.953 280.647,77.211 280.078,78.471 280.078 C 79.401 280.078,79.707 279.684,81.262 276.481 C 82.222 274.503,83.398 272.305,83.875 271.598 L 84.742 270.313 75.379 270.313 L 66.016 270.313 66.043 287.793 " stroke="none" fill="#c7c7c7" fill-rule="evenodd"></path><path id="path6" d="M124.351 107.985 C 124.470 108.295,130.323 118.534,137.358 130.739 C 144.393 142.944,151.565 155.427,153.297 158.479 C 155.028 161.531,156.552 164.036,156.682 164.045 C 157.330 164.092,164.929 150.225,164.576 149.639 C 164.022 148.719,149.295 123.089,144.806 115.234 C 142.658 111.475,140.629 108.179,140.297 107.910 C 139.348 107.142,124.055 107.213,124.351 107.985 M58.721 164.611 C 58.897 165.070,69.510 183.472,87.425 214.382 C 89.457 217.887,91.257 220.612,91.426 220.436 C 91.594 220.261,93.446 217.141,95.541 213.504 L 99.350 206.890 98.544 205.496 C 83.135 178.865,75.000 164.664,75.000 164.398 C 75.000 164.213,71.290 164.063,66.755 164.063 C 59.838 164.063,58.544 164.151,58.721 164.611 M79.220 220.995 C 81.434 221.064,84.949 221.064,87.032 220.994 C 89.116 220.924,87.305 220.867,83.008 220.867 C 78.711 220.868,77.006 220.925,79.220 220.995 M128.439 220.995 C 130.652 221.064,134.168 221.064,136.251 220.994 C 138.335 220.924,136.523 220.867,132.227 220.867 C 127.930 220.868,126.225 220.925,128.439 220.995 " stroke="none" fill="#4db1ce" fill-rule="evenodd"></path><path id="path7" d="M285.026 121.866 C 329.535 121.978,366.035 122.158,366.139 122.266 C 366.432 122.570,389.863 163.268,390.098 163.881 C 390.213 164.181,389.698 165.443,388.953 166.686 C 388.208 167.928,387.027 170.000,386.329 171.289 C 384.649 174.394,384.496 174.522,383.936 173.291 C 383.306 171.909,383.717 171.561,377.195 178.991 C 374.042 182.582,371.211 185.661,370.903 185.833 C 370.312 186.164,372.690 190.795,373.638 191.159 C 375.384 191.829,375.850 191.284,380.090 183.622 C 381.795 180.541,383.279 177.984,384.254 176.444 C 384.772 175.626,385.655 174.132,386.217 173.123 C 386.778 172.114,387.581 170.674,388.001 169.922 C 388.420 169.170,389.122 168.049,389.560 167.432 C 390.922 165.513,390.682 163.491,388.696 160.146 C 387.743 158.540,386.198 155.908,385.263 154.297 C 384.328 152.686,383.402 151.104,383.206 150.781 C 381.650 148.235,380.238 145.799,380.027 145.296 C 379.887 144.965,378.435 142.462,376.801 139.733 C 375.166 137.004,373.828 134.657,373.828 134.517 C 373.828 134.378,373.125 133.151,372.266 131.790 C 371.406 130.429,370.703 129.212,370.703 129.084 C 370.703 128.956,370.208 128.117,369.603 127.219 C 368.998 126.321,368.202 124.935,367.835 124.139 C 367.468 123.344,366.898 122.422,366.568 122.092 C 366.031 121.555,357.400 121.501,285.034 121.576 L 204.102 121.661 285.026 121.866 M383.082 174.512 C 382.984 174.888,382.903 174.580,382.903 173.828 C 382.903 173.076,382.984 172.769,383.082 173.145 C 383.180 173.521,383.180 174.136,383.082 174.512 M201.855 178.807 C 204.058 178.877,207.661 178.877,209.863 178.807 C 212.065 178.737,210.264 178.680,205.859 178.680 C 201.455 178.680,199.653 178.737,201.855 178.807 M234.668 178.807 C 236.870 178.877,240.474 178.877,242.676 178.807 C 244.878 178.737,243.076 178.680,238.672 178.680 C 234.268 178.680,232.466 178.737,234.668 178.807 M264.941 178.800 C 265.747 178.884,267.065 178.884,267.871 178.800 C 268.677 178.716,268.018 178.647,266.406 178.647 C 264.795 178.647,264.136 178.716,264.941 178.800 M292.114 178.808 C 295.619 178.873,301.244 178.873,304.614 178.808 C 307.985 178.743,305.117 178.690,298.242 178.690 C 291.367 178.690,288.610 178.743,292.114 178.808 M330.068 178.807 C 332.089 178.902,333.232 179.149,333.779 179.609 C 334.566 180.270,334.566 180.269,333.826 179.395 C 333.162 178.610,332.763 178.524,330.115 178.593 L 327.148 178.671 330.068 178.807 M357.813 178.800 L 365.820 178.906 366.742 179.980 C 367.249 180.571,367.530 180.791,367.366 180.469 C 366.366 178.499,366.419 178.510,357.850 178.605 L 349.805 178.694 357.813 178.800 M342.757 190.262 C 342.614 190.492,342.121 190.832,341.659 191.018 C 341.087 191.249,341.018 191.365,341.443 191.381 C 341.786 191.395,342.385 191.055,342.773 190.625 C 343.162 190.195,343.376 189.844,343.248 189.844 C 343.120 189.844,342.899 190.032,342.757 190.262 M295.437 272.166 C 294.969 273.188,294.206 274.902,293.742 275.977 C 293.278 277.051,292.742 278.281,292.551 278.711 C 291.169 281.819,289.453 286.194,289.453 286.609 C 289.453 286.884,289.277 287.109,289.062 287.109 C 288.848 287.109,288.703 287.241,288.742 287.402 C 288.781 287.563,288.253 288.886,287.570 290.342 C 286.887 291.797,286.328 293.049,286.328 293.124 C 286.328 293.199,285.940 294.117,285.466 295.165 C 284.991 296.213,284.593 297.158,284.581 297.266 C 284.568 297.373,284.449 297.637,284.316 297.852 C 284.182 298.066,283.331 300.000,282.424 302.148 C 281.517 304.297,280.463 306.758,280.082 307.617 C 279.701 308.477,278.833 310.498,278.155 312.109 C 277.476 313.721,276.664 315.616,276.351 316.322 C 275.256 318.787,275.172 318.750,281.773 318.750 L 287.766 318.750 288.289 317.090 C 288.577 316.177,288.925 315.254,289.063 315.039 C 289.201 314.824,289.896 313.286,290.608 311.621 L 291.902 308.594 301.823 308.594 C 310.919 308.594,311.763 308.651,311.984 309.277 C 312.252 310.040,313.039 311.883,314.659 315.544 C 315.993 318.559,315.993 318.559,317.729 312.305 C 318.504 309.512,319.520 305.875,319.987 304.224 L 320.835 301.221 318.948 296.997 C 317.910 294.674,316.587 291.719,316.009 290.430 C 315.430 289.141,314.298 286.504,313.493 284.570 C 311.714 280.296,311.272 279.268,310.137 276.758 C 309.651 275.684,308.858 273.838,308.374 272.656 L 307.494 270.508 301.892 270.408 L 296.289 270.308 295.437 272.166 M330.859 273.545 L 330.859 276.778 334.473 276.458 C 336.460 276.282,339.009 276.046,340.137 275.932 L 342.188 275.725 342.188 273.019 L 342.188 270.313 336.523 270.313 L 330.859 270.313 330.859 273.545 M357.413 272.949 C 356.026 274.399,355.152 275.386,355.473 275.142 C 355.793 274.898,357.988 274.580,360.352 274.437 C 366.691 274.052,367.067 273.954,367.553 272.559 C 368.333 270.323,368.316 270.313,363.952 270.313 L 359.936 270.313 357.413 272.949 M331.028 288.477 C 331.028 293.633,331.084 295.688,331.151 293.044 C 331.219 290.400,331.219 286.181,331.151 283.669 C 331.083 281.157,331.028 283.320,331.028 288.477 M276.587 284.258 C 276.536 285.228,277.443 288.883,277.828 289.258 C 278.195 289.616,278.112 288.746,277.546 286.328 C 277.296 285.257,276.612 283.782,276.587 284.258 M302.521 287.305 C 303.670 289.906,304.227 291.222,305.246 293.750 C 305.809 295.146,306.441 296.594,306.650 296.967 C 307.422 298.341,307.102 298.438,301.758 298.438 C 298.857 298.438,296.484 298.332,296.484 298.204 C 296.484 297.982,297.065 296.571,298.237 293.945 C 299.785 290.479,300.710 288.343,301.157 287.207 C 301.777 285.635,301.783 285.635,302.521 287.305 M264.905 302.218 C 264.639 302.502,264.550 302.734,264.707 302.734 C 264.863 302.734,264.650 303.060,264.234 303.457 C 262.661 304.959,261.337 306.641,261.728 306.641 C 261.951 306.641,262.233 306.381,262.355 306.064 C 262.535 305.596,262.828 305.679,263.905 306.501 C 265.802 307.948,265.629 308.088,261.848 308.172 C 259.986 308.213,258.113 308.433,257.686 308.661 C 256.415 309.342,251.386 309.396,249.221 308.754 C 247.945 308.375,246.022 308.213,243.668 308.286 L 240.067 308.398 239.796 309.766 C 239.647 310.518,239.348 312.011,239.131 313.085 C 238.844 314.502,238.860 315.185,239.187 315.579 C 239.577 316.050,242.815 317.651,243.071 317.500 C 243.122 317.471,243.581 317.669,244.090 317.942 C 246.296 319.122,253.494 319.665,257.813 318.977 C 265.054 317.822,272.352 312.810,275.427 306.881 C 277.084 303.685,276.899 303.293,273.566 302.939 C 272.099 302.783,269.658 302.441,268.143 302.179 C 265.891 301.789,265.299 301.796,264.905 302.218 M233.870 311.316 C 234.232 311.740,234.607 312.008,234.703 311.912 C 234.936 311.679,233.979 310.547,233.550 310.547 C 233.363 310.547,233.507 310.893,233.870 311.316 M227.472 315.430 C 227.474 316.934,227.544 317.501,227.629 316.691 C 227.713 315.880,227.712 314.650,227.626 313.956 C 227.539 313.263,227.470 313.926,227.472 315.430 M214.963 318.651 C 217.500 318.719,221.543 318.719,223.948 318.651 C 226.353 318.582,224.277 318.527,219.336 318.527 C 214.395 318.527,212.427 318.583,214.963 318.651 " stroke="none" fill="#746c74" fill-rule="evenodd"></path><path id="path8" d="" stroke="none" fill="#71b8ce" fill-rule="evenodd"></path></g></svg>