<svg id="Ebene_1" data-name="Ebene 1" xmlns="http://www.w3.org/2000/svg" viewBox="0 0 65 65"><defs><clipPath id="clip-path"><path style="fill:none" d="M2.81 1.34h59.37v62.32H2.81z"/></clipPath><style>.cls-3{fill:#fff}</style></defs><g id="Gruppe_70" data-name="Gruppe 70"><g id="Gruppe_66" data-name="Gruppe 66"><path id="Pfad_16" data-name="Pfad 16" d="M23.91 1.34 5.27 10.66v15.7L2.81 45.5l15.7 12.76 16.69 5.4L48 56.3l14.23-9.82-1-19.62-3.95-16.69-14.72-7.85Z"/></g><g style="clip-path:url(#clip-path)"><g id="Gruppe_68" data-name="Gruppe 68"><g id="Gruppe_67" data-name="Gruppe 67"><path id="Pfad_17" data-name="Pfad 17" class="cls-3" d="M13.85 37.4h.85a.49.49 0 0 0 .43-.28l2.45-5.63h11.69l2.48 5.63a.51.51 0 0 0 .43.28H33c.34 0 .34-.18.28-.37l-9.36-21.15a.4.4 0 0 0-.4-.21h-.1a.41.41 0 0 0-.36.21L13.63 37c-.09.25 0 .37.22.37m4.28-7.1 5.33-12.18h.06l5.24 12.21Zm29.06-3.86a5.21 5.21 0 0 0 3.21-4.93c0-3.36-2.57-5.53-6.34-5.53h-6.52a.4.4 0 0 0-.4.4V37a.41.41 0 0 0 .4.4h6.8c4 0 6.73-2.39 6.73-5.82a5 5 0 0 0-3.88-5.08Zm-8.64-.55v-8.54h5.51c2.94 0 4.78 1.59 4.78 4.25s-1.69 4.32-4.56 4.32Zm0 10.23v-8.88h5.94c2.91 0 5 1.62 5 4.35s-2.08 4.56-5 4.56Z"/></g></g></g></g><path id="Pfad_21" data-name="Pfad 21" class="cls-3" d="M19.54 49.63h.83v-6l3.39 6h.68v-7.36a.26.26 0 0 1 0-.17.29.29 0 0 0 0-.16h-.91v5.7L20.38 42h-.84ZM27 41.94v7.69h4.68v-.77h-3.82V46h3.21v-.79h-3.21v-2.5h3.89v-.77Zm11.34 0-1.54 2.92-1.62-2.92h-.92l2.05 3.78-2.1 3.91h.95l1.64-3 1.71 3h1L37.3 45.7l1.94-3.76Zm3.11 0v.78h2.18v6.92h.87v-6.92h2.27v-.78Z"/></svg>