<?xml version="1.0" standalone="no"?>
<!DOCTYPE svg PUBLIC "-//W3C//DTD SVG 20010904//EN"
 "http://www.w3.org/TR/2001/REC-SVG-20010904/DTD/svg10.dtd">
<svg version="1.0" xmlns="http://www.w3.org/2000/svg"
 width="179.000000pt" height="299.000000pt" viewBox="0 0 179.000000 299.000000"
 preserveAspectRatio="xMidYMid meet">

<g transform="translate(0.000000,299.000000) scale(0.100000,-0.100000)"
fill="#000000" stroke="none">
<path d="M642 2936 c4 -30 14 -56 29 -72 26 -28 18 -45 -10 -20 -20 18 -35 51
-46 100 -5 23 -8 27 -15 16 -10 -16 -3 -59 11 -74 15 -17 10 -41 -11 -54 -12
-7 -20 -23 -20 -40 0 -21 -7 -32 -24 -40 -14 -6 -26 -22 -29 -40 -5 -22 -13
-31 -34 -35 -19 -3 -31 0 -36 9 -5 9 -22 14 -45 13 -20 0 -51 2 -68 6 -26 6
-34 3 -53 -22 -18 -22 -22 -37 -18 -66 7 -53 -15 -43 -30 14 l-11 44 -1 -38
c-1 -21 4 -47 9 -58 18 -33 -8 -22 -29 12 -10 17 -21 27 -24 22 -7 -12 8 -46
27 -62 23 -19 20 -29 -11 -33 -21 -2 -29 -9 -31 -27 -2 -13 -10 -31 -18 -38
-22 -23 -16 -57 15 -88 17 -15 31 -37 33 -49 2 -13 14 -23 35 -29 41 -12 48
-31 23 -65 -20 -27 -20 -29 -3 -75 18 -48 30 -56 51 -35 16 16 21 8 36 -47
l12 -47 -96 -97 c-98 -99 -150 -175 -191 -277 -19 -50 -23 -77 -23 -169 0 -93
4 -118 24 -163 27 -62 63 -95 131 -119 38 -14 48 -21 42 -33 -13 -27 -15 -223
-2 -283 14 -70 34 -87 104 -88 74 -1 93 -10 115 -53 15 -31 17 -42 7 -48 -95
-65 -239 -134 -256 -123 -5 2 -11 33 -14 67 -4 48 -11 67 -27 80 -36 29 -74
23 -109 -17 -37 -43 -45 -70 -46 -154 l0 -63 64 -23 c35 -13 76 -36 90 -51 18
-19 21 -25 9 -21 -10 4 -40 9 -68 13 l-50 7 0 -40 0 -40 53 -11 c148 -31 177
-35 192 -22 19 16 19 54 0 70 -31 26 -16 33 63 27 118 -9 225 8 300 49 46 25
68 32 80 25 38 -20 212 -226 244 -290 28 -56 24 -64 -41 -83 -61 -18 -91 -39
-91 -64 0 -11 23 -14 123 -14 82 0 127 4 135 12 7 7 12 44 12 95 0 46 4 83 8
83 4 0 28 -20 52 -45 24 -25 49 -45 55 -45 13 0 55 42 55 55 0 5 -16 25 -35
45 -25 26 -38 51 -49 100 -17 72 -37 94 -78 86 -24 -5 -29 -2 -33 22 -42 198
-75 258 -179 319 -20 12 -19 12 9 13 25 0 128 -18 210 -37 16 -3 74 51 272
256 328 339 358 386 358 551 0 87 -3 100 -30 149 -57 102 -187 181 -302 181
-25 0 -43 12 -90 58 -55 55 -183 129 -253 145 -19 5 -29 18 -42 59 -10 28 -15
54 -13 57 3 2 16 -1 30 -7 32 -15 72 0 86 32 6 13 21 26 33 29 102 25 126 47
126 116 1 52 3 58 32 76 18 11 35 31 38 45 8 30 -4 70 -21 70 -7 0 -8 -7 -4
-17 18 -41 -9 -93 -46 -93 -18 0 -18 2 1 33 24 38 26 90 5 107 -19 16 -34 5
-17 -12 25 -25 5 -98 -27 -98 -14 0 -14 13 0 27 18 18 6 65 -22 85 -17 13 -47
21 -85 23 -79 5 -96 12 -84 35 15 29 12 46 -14 77 -17 20 -21 34 -16 48 10 28
-14 85 -36 85 -16 0 -16 -2 -1 -17 16 -18 20 -35 18 -65 -1 -12 -9 -18 -27
-18 -15 0 -23 4 -19 11 13 19 -5 58 -34 75 -16 10 -35 28 -42 41 -7 13 -23 26
-35 29 -12 3 -34 19 -50 35 -48 50 -133 49 -149 -2 -6 -17 -9 -19 -16 -8 -5 8
-9 24 -9 36 0 12 -5 25 -11 29 -9 5 -10 -6 -7 -40z m165 -17 c11 -10 10 -14
-7 -26 -14 -10 -20 -24 -18 -41 2 -22 9 -28 35 -30 28 -3 32 -7 35 -35 2 -25
8 -33 26 -35 28 -4 50 12 54 41 l3 22 23 -23 c13 -13 22 -29 19 -35 -20 -53
-19 -55 15 -54 27 2 34 -2 36 -20 2 -12 -4 -35 -13 -52 -19 -37 -17 -46 12
-43 32 5 42 -36 14 -59 -12 -10 -18 -20 -13 -23 14 -9 52 24 52 45 0 10 4 19
9 19 15 0 21 -29 11 -56 -12 -32 -12 -34 0 -34 5 0 15 20 21 45 8 33 16 45 30
45 13 0 17 -7 16 -26 -3 -34 25 -53 47 -35 9 8 16 22 16 33 0 16 3 17 20 8 12
-6 20 -21 20 -35 0 -25 -31 -65 -51 -65 -5 0 -7 -5 -4 -10 4 -6 10 -8 15 -5 9
5 70 -21 70 -29 0 -3 3 -11 6 -20 5 -13 1 -15 -23 -10 -56 11 -82 -48 -27 -62
12 -3 28 -3 33 1 23 14 10 -25 -14 -41 -26 -17 -45 -12 -45 11 0 20 -36 37
-60 30 -28 -9 -25 -40 8 -66 l27 -22 -50 7 c-45 6 -48 5 -31 -8 30 -24 13 -50
-27 -41 -17 4 -53 6 -79 6 -39 -1 -49 3 -67 25 -25 31 -25 35 -8 58 13 18 15
18 40 1 28 -18 38 -6 12 15 -8 7 -15 20 -15 28 0 12 3 13 12 4 14 -14 78 -16
78 -2 0 6 -12 10 -26 10 -42 0 -64 17 -64 52 0 29 2 30 30 25 43 -9 37 7 -9
25 -52 21 -67 49 -41 73 30 27 24 40 -6 16 -58 -46 -65 -15 -12 48 36 41 28
54 -11 17 -37 -36 -50 -18 -21 29 25 41 17 45 -20 10 -18 -17 -29 -22 -40 -15
-12 7 -12 12 -2 22 19 19 15 24 -20 26 -18 2 -39 9 -49 17 -14 14 -20 14 -52
0 -46 -19 -41 -20 -74 11 -17 15 -29 21 -31 14 -3 -7 1 -17 7 -23 13 -13 15
-47 2 -47 -5 0 -12 19 -16 42 -6 33 -9 38 -17 25 -5 -11 -5 -30 1 -52 6 -22 6
-35 0 -35 -5 0 -12 14 -16 30 -3 17 -10 33 -14 36 -12 7 -11 -23 1 -65 5 -19
8 -36 6 -39 -2 -2 -26 4 -53 14 -60 21 -96 14 -135 -28 -36 -39 -38 -95 -5
-133 l22 -26 -35 -75 c-19 -40 -38 -74 -41 -74 -3 0 -14 6 -25 14 -16 13 -17
18 -6 35 17 30 16 31 -18 14 -24 -12 -34 -12 -45 -3 -21 18 -19 35 8 53 12 8
19 18 15 22 -4 4 -18 1 -31 -8 -23 -15 -26 -14 -46 7 -37 39 -19 70 24 42 32
-21 31 -13 0 28 -27 35 -24 46 11 46 14 0 25 -8 29 -20 3 -11 11 -20 17 -20 6
0 7 7 3 18 -20 47 -18 61 11 68 43 10 44 12 28 42 -7 15 -14 37 -14 49 0 27
40 56 64 47 19 -7 19 -9 7 -52 -8 -25 -7 -32 2 -29 7 2 14 16 17 32 3 15 12
32 21 38 22 14 53 1 45 -18 -3 -8 -9 -22 -12 -30 -3 -8 -1 -15 4 -15 6 0 13 9
17 19 7 22 58 43 82 34 12 -5 15 -2 10 10 -10 25 10 71 26 60 10 -7 42 -9 95
-4 8 1 12 10 10 24 -2 18 -9 22 -41 22 -32 0 -37 3 -37 23 0 18 6 22 31 22 17
0 43 -9 57 -21 33 -25 39 -13 22 47 -11 38 -10 47 5 70 14 22 22 25 47 20 17
-3 37 -11 45 -17z m28 -60 c0 -7 -8 -15 -17 -17 -18 -3 -25 18 -11 32 10 10
28 1 28 -15z m64 -8 c9 -16 6 -20 -17 -24 -33 -6 -33 -6 -25 21 7 27 29 29 42
3z m11 -61 c0 -13 -7 -20 -20 -20 -13 0 -20 7 -20 20 0 13 7 20 20 20 13 0 20
-7 20 -20z m-250 -35 c0 -8 -6 -15 -14 -15 -17 0 -28 14 -19 24 12 12 33 6 33
-9z m408 -118 c-2 -12 -11 -23 -23 -25 -16 -3 -18 -1 -7 9 6 7 12 27 12 44 1
25 2 27 11 12 6 -10 9 -28 7 -40z m-282 -23 c-31 -11 -40 -11 -66 4 l-29 17
32 15 c30 15 34 14 66 -4 l34 -20 -37 -12z m-76 -12 c27 -22 18 -56 -13 -48
-12 3 -27 1 -33 -5 -18 -14 -6 -39 18 -39 11 0 18 -5 16 -11 -5 -15 -13 -12
-58 19 -48 33 -50 56 -7 82 39 24 49 25 77 2z m124 -12 c14 -5 32 -20 41 -34
32 -48 -14 -126 -75 -126 -31 0 -66 23 -72 48 -4 15 -1 18 18 14 16 -3 26 1
30 12 8 21 -15 49 -33 41 -29 -11 -6 20 28 37 40 21 32 20 63 8z m-279 -42
c22 -11 62 -39 89 -61 34 -29 51 -38 54 -28 3 9 11 5 26 -14 16 -20 33 -28 67
-32 41 -5 50 -2 81 26 42 37 48 37 70 7 22 -30 17 -120 -8 -147 -22 -24 -22
-73 -1 -97 22 -24 21 -35 -3 -57 -24 -22 -25 -38 -3 -72 17 -25 17 -25 -38
-77 -30 -28 -70 -64 -89 -78 -19 -15 -32 -30 -28 -33 8 -8 53 19 97 59 l33 31
-4 -80 c-5 -90 -28 -151 -80 -216 -28 -35 -101 -89 -121 -89 -3 0 -3 15 0 33
2 17 0 66 -6 107 -8 63 -8 79 5 98 20 31 10 76 -23 102 -29 23 -97 27 -138 8
-37 -17 -57 7 -63 76 -2 31 -8 56 -12 56 -17 0 -20 -57 -6 -98 8 -23 11 -42 6
-42 -4 0 -16 -3 -24 -6 -20 -8 -48 52 -76 162 l-20 77 21 76 c17 61 41 117 65
149 5 7 187 -19 206 -29 24 -13 35 -4 19 15 -11 13 -68 26 -181 41 -63 8 -90
28 -90 66 0 43 16 68 53 84 36 16 65 12 122 -17z m653 -10 c-6 -18 -28 -21
-28 -4 0 9 7 16 16 16 9 0 14 -5 12 -12z m80 -195 c2 -8 -5 -13 -17 -13 -21 0
-35 13 -24 24 10 10 36 3 41 -11z m-78 -64 c10 -18 9 -20 -12 -17 -12 2 -24
11 -26 21 -5 24 25 22 38 -4z m-836 -321 c5 -18 -2 -30 -27 -53 -81 -74 -153
-204 -183 -330 -10 -38 -24 -78 -32 -87 -20 -24 -10 -23 62 6 34 14 85 28 114
32 l52 7 0 -50 c0 -70 19 -85 70 -57 l38 21 16 -35 c16 -34 16 -35 -15 -84
-52 -81 -119 -118 -214 -118 -77 0 -151 64 -175 149 -15 54 -12 175 6 245 24
92 73 171 174 279 51 53 96 97 100 97 4 0 10 -10 14 -22z m293 -54 c14 -19 18
-64 5 -64 -4 0 -13 9 -20 21 -7 11 -31 28 -52 38 -22 10 -37 21 -32 25 12 13
86 -2 99 -20z m-87 -24 c19 -10 43 -27 53 -37 42 -47 47 -242 8 -342 -16 -40
-18 -51 -7 -51 8 0 16 7 20 15 6 16 14 16 106 -7 45 -12 111 -44 162 -79 49
-35 53 -19 6 24 l-46 42 29 105 c50 177 121 324 168 349 28 16 83 14 107 -4
12 -8 32 -38 44 -67 71 -161 -21 -465 -183 -601 -61 -52 -101 -67 -172 -67
-104 0 -188 52 -261 162 -26 39 -62 79 -81 90 -32 19 -37 31 -34 71 3 26 -22
20 -54 -13 -37 -39 -65 -40 -65 -2 0 34 35 92 55 92 9 0 32 -7 52 -15 40 -17
81 -19 102 -6 19 12 17 58 -5 82 -16 17 -16 22 -4 29 8 6 18 10 21 10 13 0 19
32 10 48 -6 12 -4 24 5 37 20 28 17 60 -9 91 -35 40 -110 45 -172 11 -39 -22
-47 -24 -52 -11 -8 21 15 42 63 59 43 16 81 11 134 -15z m-28 -40 c46 -13 62
-38 48 -75 -13 -34 -30 -28 -45 14 -6 19 -21 42 -34 52 -27 22 -21 23 31 9z
m-41 -30 c38 -21 23 -40 -31 -40 -49 0 -90 -23 -90 -51 0 -5 -4 -7 -10 -4 -35
22 28 105 80 105 17 0 40 -5 51 -10z m-155 -42 c-13 -31 -13 -37 0 -57 14 -19
14 -23 -4 -46 l-20 -25 -5 29 c-6 29 6 89 25 124 16 31 19 12 4 -25z m188 -35
c56 -26 60 -63 7 -63 -16 0 -34 6 -40 14 -7 8 -27 18 -44 22 -44 9 -50 14 -36
30 16 19 71 18 113 -3z m-70 -56 l28 -12 -34 -13 c-23 -8 -42 -25 -57 -53 -15
-26 -29 -39 -39 -37 -38 7 -19 88 27 113 32 17 38 17 75 2z m81 -62 c54 -53
17 -77 -69 -44 -49 18 -55 23 -44 36 31 38 81 41 113 8z m8 -830 c4 -9 -6 -24
-26 -39 -29 -23 -33 -24 -49 -9 -10 9 -18 27 -18 40 0 21 5 23 44 23 29 0 46
-5 49 -15z m301 9 c13 -5 10 -13 -19 -45 -25 -28 -35 -49 -35 -72 0 -41 -40
-125 -74 -157 -27 -24 -28 -24 -38 -5 -21 37 -90 104 -139 136 l-50 32 41 34
c26 23 40 43 40 59 l0 24 129 0 c71 0 137 -3 145 -6z m52 -80 c19 -9 37 -20
40 -25 10 -17 -48 -108 -105 -164 -58 -58 -71 -64 -90 -41 -9 10 -7 16 5 27
23 19 61 99 69 145 14 83 20 87 81 58z m-786 -43 c5 -11 10 -61 10 -111 l0
-92 -32 7 c-59 13 -68 22 -68 68 0 103 58 186 90 128z"/>
<path d="M889 2440 c-1 -8 -2 -25 -2 -36 -2 -24 -137 -154 -202 -194 -29 -18
-53 -24 -94 -24 -48 0 -56 3 -81 32 -15 18 -35 57 -46 87 -11 34 -22 51 -27
46 -10 -10 26 -123 48 -151 7 -8 18 -42 25 -75 16 -77 50 -149 73 -153 14 -3
28 18 63 93 41 85 57 107 147 197 87 87 102 99 105 80 2 -12 8 -22 14 -22 14
0 4 108 -11 123 -8 8 -11 7 -12 -3z"/>
<path d="M663 737 c-53 -25 -56 -39 -5 -25 51 14 74 27 67 39 -8 12 -11 11
-62 -14z"/>
</g>
</svg>
